<?xml version="1.0" standalone="no"?>
<!DOCTYPE svg PUBLIC "-//W3C//DTD SVG 20010904//EN"
 "http://www.w3.org/TR/2001/REC-SVG-20010904/DTD/svg10.dtd">
<svg version="1.0" xmlns="http://www.w3.org/2000/svg"
 width="450.000000pt" height="330.000000pt" viewBox="0 0 450.000000 330.000000"
 preserveAspectRatio="xMidYMid meet">
<g transform="translate(0.000000,330.000000) scale(0.100000,-0.100000)"
fill="#f8fafc" stroke="none">
<path d="M477 3280 c-3 -11 -14 -20 -25 -20 -11 0 -25 -7 -32 -15 -7 -8 -18
-15 -24 -15 -28 0 -196 -167 -229 -227 -46 -84 -70 -145 -98 -248 -18 -67 -19
-121 -19 -1121 0 -909 2 -1057 15 -1094 8 -23 15 -53 15 -65 0 -13 7 -36 15
-52 7 -15 24 -50 37 -76 37 -78 45 -89 92 -145 50 -58 140 -139 171 -153 11
-5 27 -13 35 -17 8 -5 25 -14 37 -20 33 -17 3423 -17 3456 0 12 6 29 15 37 20
8 4 24 12 35 17 49 22 196 169 228 228 46 84 68 142 97 248 19 67 20 117 20
1121 0 910 -2 1057 -15 1094 -8 23 -15 53 -15 65 0 13 -6 36 -14 52 -8 15 -29
58 -47 95 -18 36 -54 91 -80 122 -54 63 -158 156 -175 156 -6 0 -17 7 -24 15
-7 8 -21 15 -32 15 -11 0 -22 9 -25 20 -5 20 -14 20 -1718 20 -1704 0 -1713 0
-1718 -20z m3253 -250 c158 -67 234 -148 291 -311 19 -55 19 -83 16 -1100 -3
-1142 2 -1054 -63 -1169 -54 -96 -131 -154 -265 -201 -54 -19 -88 -19 -1535
-16 -1622 3 -1488 -3 -1604 63 -96 54 -154 131 -201 265 -19 55 -19 83 -16
1100 3 1142 -2 1054 63 1169 53 94 125 148 269 204 36 13 206 15 1525 13 1284
-2 1490 -4 1520 -17z"/>
<path d="M832 1683 l3 -858 330 0 c404 0 464 11 616 108 146 93 219 230 219
408 0 188 -88 328 -253 398 -26 11 -47 24 -47 29 0 5 20 26 46 47 72 60 103
96 137 164 30 62 32 71 31 176 0 100 -3 116 -28 167 -49 101 -146 169 -286
202 -52 13 -136 16 -418 16 l-352 0 2 -857z m734 629 c92 -47 123 -116 111
-249 -10 -105 -55 -163 -162 -209 -52 -23 -416 -34 -440 -14 -12 10 -15 51
-15 240 0 126 3 236 7 245 6 16 26 17 232 13 205 -4 230 -6 267 -26z m12 -705
c76 -29 132 -75 158 -131 31 -67 34 -208 5 -271 -42 -94 -156 -159 -304 -175
-133 -14 -350 -13 -365 2 -18 18 -17 569 1 587 19 20 446 9 505 -12z"/>
<path d="M2240 1686 c0 -769 2 -854 16 -860 20 -8 142 -8 172 0 l22 6 0 697
c0 383 4 702 8 709 17 26 33 -2 227 -383 324 -636 519 -1011 533 -1022 16 -14
206 -19 236 -7 14 6 16 91 16 860 l0 855 -102 -3 -103 -3 -3 -645 c-1 -354 -6
-648 -10 -652 -5 -5 -15 0 -24 9 -8 10 -135 254 -281 543 -147 289 -292 575
-324 635 l-58 110 -162 3 -163 2 0 -854z"/>
</g>
</svg>
